<svg width="12644" height="2630" viewBox="0 0 12644 2630" fill="none" xmlns="http://www.w3.org/2000/svg">
<path d="M6469.06 31.9218L5629.4 2575.02H5117.76L4281.66 31.9218H4862.83L5372.68 1729.1L5884.33 31.9218H6469.06Z" fill="white"/>
<path d="M6871.76 2575.02H6360.11V31.9218H6871.76V2575.02Z" fill="white"/>
<path d="M8749.16 2575.02H6770.34L7861.36 540.897H6770.34V31.9218H8749.16L7661.7 2066.05H8749.16V2575.02Z" fill="white"/>
<path d="M10783.2 1314.11C10783.2 1434.71 10767.2 1551.16 10735.1 1663.48C10704.2 1774.61 10660.2 1879.25 10603.2 1977.38C10546.1 2074.32 10477.2 2163 10396.4 2243.39C10315.6 2323.79 10226.4 2392.95 10129 2450.88C10031.5 2507.63 9926.35 2551.38 9813.44 2582.12C9700.54 2614.04 9583.47 2630 9462.25 2630C9341.02 2630 9223.96 2614.04 9111.05 2582.12C8999.33 2551.38 8894.15 2507.63 8795.51 2450.88C8698.05 2392.95 8608.92 2323.79 8528.1 2243.39C8447.29 2163 8377.76 2074.32 8319.52 1977.38C8262.48 1879.25 8217.91 1774.61 8185.82 1663.48C8154.92 1551.16 8139.47 1434.71 8139.47 1314.11C8139.47 1193.52 8154.92 1077.06 8185.82 964.747C8217.91 852.43 8262.48 747.797 8319.52 650.85C8377.76 553.902 8447.29 465.23 8528.1 384.835C8608.92 304.439 8698.05 235.866 8795.51 179.117C8894.15 122.367 8999.33 78.6222 9111.05 47.8827C9223.96 15.9609 9341.02 0 9462.25 0C9583.47 0 9700.54 15.9609 9813.44 47.8827C9926.35 78.6222 10031.5 122.367 10129 179.117C10226.4 235.866 10315.6 304.439 10396.4 384.835C10477.2 465.23 10546.1 553.902 10603.2 650.85C10660.2 747.797 10704.2 852.43 10735.1 964.747C10767.2 1077.06 10783.2 1193.52 10783.2 1314.11ZM10275.2 1314.11C10275.2 1202.98 10253.8 1098.35 10211 1000.22C10168.2 900.904 10110 815.188 10036.3 743.068C9963.79 669.766 9877.62 611.834 9777.79 569.272C9679.15 526.709 9573.96 505.428 9462.25 505.428C9349.34 505.428 9243.57 526.709 9144.92 569.272C9046.28 611.834 8960.11 669.766 8886.43 743.068C8812.74 815.188 8754.51 900.904 8711.72 1000.22C8668.94 1098.35 8647.54 1202.98 8647.54 1314.11C8647.54 1425.25 8668.94 1529.88 8711.72 1628.01C8754.51 1724.96 8812.74 1810.08 8886.43 1883.39C8960.11 1956.69 9046.28 2014.62 9144.92 2057.18C9243.57 2099.74 9349.34 2121.02 9462.25 2121.02C9573.96 2121.02 9679.15 2099.74 9777.79 2057.18C9877.62 2014.62 9963.79 1956.69 10036.3 1883.39C10110 1810.08 10168.2 1724.96 10211 1628.01C10253.8 1529.88 10275.2 1425.25 10275.2 1314.11Z" fill="white"/>
<path d="M11110.5 540.897V1558.85H11622.1C11692.2 1558.85 11758.2 1545.84 11820 1519.83C11881.8 1492.64 11935.9 1455.99 11982.2 1409.88C12028.6 1363.77 12064.8 1309.98 12091 1248.5C12118.3 1185.83 12132 1119.63 12132 1049.87C12132 980.117 12118.3 914.5 12091 853.021C12064.8 790.36 12028.6 735.974 11982.2 689.865C11935.9 643.756 11881.8 607.696 11820 581.686C11758.2 554.493 11692.2 540.897 11622.1 540.897H11110.5ZM11110.5 2575.02H10598.8V31.9218H11622.1C11716 31.9218 11806.3 44.3358 11893.1 69.1639C11979.8 92.8096 12060.7 127.096 12135.5 172.023C12211.6 215.768 12280.5 268.971 12342.3 331.632C12405.3 393.111 12458.8 461.684 12502.8 537.35C12547.9 613.016 12582.4 694.003 12606.2 780.31C12631.1 866.617 12643.6 956.471 12643.6 1049.87C12643.6 1137.36 12632.3 1222.49 12609.7 1305.25C12588.3 1388.01 12556.9 1466.63 12515.3 1541.11C12474.8 1615.6 12424.9 1684.17 12365.5 1746.83C12306.1 1809.49 12239.5 1863.88 12165.8 1909.99L12449.3 2575.02H11905.6L11682.7 2062.5L11110.5 2066.05V2575.02Z" fill="white"/>
<path d="M1850.28 625.501C2573.92 650.365 3383.59 545.12 3697.97 489.389C3608.8 1055.27 3507.2 1363.22 3467.55 1446.46C3147.74 1887.16 2664.09 2091.65 2462.25 2138.81L2256.47 1830.15H2033.55L1981.03 1916.96H1850.28V625.501Z" fill="url(#paint0_linear_216_11)"/>
<path d="M1850.28 625.589C1125.79 650.47 315.182 545.156 0.437622 489.389C89.7106 1055.64 191.43 1363.79 231.131 1447.08C551.312 1888.07 1035.52 2092.7 1237.6 2139.88L1443.61 1831.02H1666.8L1719.37 1917.89H1850.28V625.589Z" fill="url(#paint1_linear_216_11)"/>
<defs>
<linearGradient id="paint0_linear_216_11" x1="3611.81" y1="2138.81" x2="1999.23" y2="1993.12" gradientUnits="userSpaceOnUse">
<stop stop-color="#65A9E9"/>
<stop offset="1" stop-color="#6765E9"/>
</linearGradient>
<linearGradient id="paint1_linear_216_11" x1="86.6995" y1="2139.88" x2="1701.13" y2="1993.95" gradientUnits="userSpaceOnUse">
<stop stop-color="#65A9E9"/>
<stop offset="1" stop-color="#6765E9"/>
</linearGradient>
</defs>
</svg>
