<svg width="352" height="62" viewBox="0 0 352 62" fill="none" xmlns="http://www.w3.org/2000/svg">
<path d="M206.533 0.752529L186.751 60.704H174.698L155 0.752529H168.692L180.704 40.762L192.757 0.752529H206.533Z" fill="url(#paint0_linear_209_2)"/>
<path d="M216.02 60.704H203.967V0.752529H216.02V60.704Z" fill="url(#paint1_linear_209_2)"/>
<path d="M260.25 60.704H213.631L239.335 12.7512H213.631V0.752529H260.25L234.631 48.7053H260.25V60.704Z" fill="url(#paint2_linear_209_2)"/>
<path d="M308.171 30.9791C308.171 33.822 307.793 36.5673 307.037 39.2151C306.309 41.835 305.273 44.3016 303.929 46.615C302.586 48.9004 300.962 50.9908 299.058 52.886C297.154 54.7813 295.054 56.4118 292.758 57.7775C290.462 59.1153 287.984 60.1465 285.324 60.8712C282.664 61.6237 279.906 62 277.05 62C274.194 62 271.436 61.6237 268.776 60.8712C266.144 60.1465 263.666 59.1153 261.342 57.7775C259.046 56.4118 256.946 54.7813 255.042 52.886C253.138 50.9908 251.5 48.9004 250.128 46.615C248.784 44.3016 247.734 41.835 246.978 39.2151C246.25 36.5673 245.886 33.822 245.886 30.9791C245.886 28.1362 246.25 25.3909 246.978 22.7431C247.734 20.0953 248.784 17.6287 250.128 15.3432C251.5 13.0578 253.138 10.9674 255.042 9.07215C256.946 7.17689 259.046 5.56035 261.342 4.22252C263.666 2.88469 266.144 1.85345 268.776 1.12879C271.436 0.376264 274.194 0 277.05 0C279.906 0 282.664 0.376264 285.324 1.12879C287.984 1.85345 290.462 2.88469 292.758 4.22252C295.054 5.56035 297.154 7.17689 299.058 9.07215C300.962 10.9674 302.586 13.0578 303.929 15.3432C305.273 17.6287 306.309 20.0953 307.037 22.7431C307.793 25.3909 308.171 28.1362 308.171 30.9791ZM296.202 30.9791C296.202 28.3592 295.698 25.8926 294.69 23.5792C293.682 21.238 292.31 19.2174 290.574 17.5172C288.866 15.7892 286.836 14.4235 284.484 13.4201C282.16 12.4167 279.682 11.915 277.05 11.915C274.39 11.915 271.898 12.4167 269.574 13.4201C267.25 14.4235 265.22 15.7892 263.484 17.5172C261.748 19.2174 260.376 21.238 259.368 23.5792C258.36 25.8926 257.856 28.3592 257.856 30.9791C257.856 33.599 258.36 36.0656 259.368 38.379C260.376 40.6644 261.748 42.6712 263.484 44.3992C265.22 46.1272 267.25 47.4929 269.574 48.4963C271.898 49.4997 274.39 50.0014 277.05 50.0014C279.682 50.0014 282.16 49.4997 284.484 48.4963C286.836 47.4929 288.866 46.1272 290.574 44.3992C292.31 42.6712 293.682 40.6644 294.69 38.379C295.698 36.0656 296.202 33.599 296.202 30.9791Z" fill="url(#paint3_linear_209_2)"/>
<path d="M315.881 12.7512V36.7485H327.934C329.586 36.7485 331.14 36.4419 332.596 35.8287C334.052 35.1877 335.326 34.3237 336.418 33.2367C337.51 32.1497 338.364 30.8815 338.98 29.4322C339.624 27.955 339.946 26.3942 339.946 24.7498C339.946 23.1054 339.624 21.5586 338.98 20.1092C338.364 18.6321 337.51 17.35 336.418 16.263C335.326 15.176 334.052 14.3259 332.596 13.7127C331.14 13.0717 329.586 12.7512 327.934 12.7512H315.881ZM315.881 60.704H303.827V0.752529H327.934C330.146 0.752529 332.274 1.04518 334.318 1.63048C336.362 2.18791 338.266 2.99618 340.03 4.05529C341.822 5.08654 343.446 6.34075 344.902 7.81794C346.386 9.26725 347.646 10.8838 348.682 12.6676C349.746 14.4513 350.558 16.3605 351.118 18.3951C351.706 20.4298 352 22.548 352 24.7498C352 26.8123 351.734 28.8191 351.202 30.7701C350.698 32.7211 349.956 34.5745 348.976 36.3304C348.024 38.0863 346.848 39.7029 345.448 41.18C344.048 42.6572 342.48 43.9393 340.744 45.0263L347.422 60.704H334.612L329.362 48.6217L315.881 48.7053V60.704Z" fill="url(#paint4_linear_209_2)"/>
<path d="M60.2588 8.4339C83.8318 9.24387 110.207 5.81545 120.448 4C117.543 22.4338 114.234 32.4654 112.942 35.1769C102.524 49.533 86.7691 56.1943 80.1939 57.7304L73.4907 47.6756H66.2288L64.5181 50.5035H60.2588V8.4339Z" fill="url(#paint5_linear_209_2)"/>
<path d="M60.2588 8.43678C36.6585 9.24727 10.2526 5.81663 -0.00030899 4C2.90779 22.4458 6.22134 32.4839 7.5146 35.1972C17.9446 49.5626 33.7178 56.2282 40.3006 57.7654L47.0116 47.704H54.2818L55.9945 50.5338H60.2588V8.43678Z" fill="url(#paint6_linear_209_2)"/>
<defs>
<linearGradient id="paint0_linear_209_2" x1="216.698" y1="-1.06477e-05" x2="321.641" y2="62.0869" gradientUnits="userSpaceOnUse">
<stop stop-color="#65A9E9"/>
<stop offset="1" stop-color="#6765E9"/>
</linearGradient>
<linearGradient id="paint1_linear_209_2" x1="216.698" y1="-1.06477e-05" x2="321.641" y2="62.0869" gradientUnits="userSpaceOnUse">
<stop stop-color="#65A9E9"/>
<stop offset="1" stop-color="#6765E9"/>
</linearGradient>
<linearGradient id="paint2_linear_209_2" x1="216.698" y1="-1.06477e-05" x2="321.641" y2="62.0869" gradientUnits="userSpaceOnUse">
<stop stop-color="#65A9E9"/>
<stop offset="1" stop-color="#6765E9"/>
</linearGradient>
<linearGradient id="paint3_linear_209_2" x1="216.698" y1="-1.06477e-05" x2="321.641" y2="62.0869" gradientUnits="userSpaceOnUse">
<stop stop-color="#65A9E9"/>
<stop offset="1" stop-color="#6765E9"/>
</linearGradient>
<linearGradient id="paint4_linear_209_2" x1="216.698" y1="-1.06477e-05" x2="321.641" y2="62.0869" gradientUnits="userSpaceOnUse">
<stop stop-color="#65A9E9"/>
<stop offset="1" stop-color="#6765E9"/>
</linearGradient>
<linearGradient id="paint5_linear_209_2" x1="117.641" y1="57.7304" x2="65.1111" y2="52.9846" gradientUnits="userSpaceOnUse">
<stop stop-color="#65A9E9"/>
<stop offset="1" stop-color="#6765E9"/>
</linearGradient>
<linearGradient id="paint6_linear_209_2" x1="2.8097" y1="57.7653" x2="55.4004" y2="53.0116" gradientUnits="userSpaceOnUse">
<stop stop-color="#65A9E9"/>
<stop offset="1" stop-color="#6765E9"/>
</linearGradient>
</defs>
</svg>
