<?xml version="1.0" encoding="utf-8"?>
<!-- Generator: Adobe Illustrator 24.3.0, SVG Export Plug-In . SVG Version: 6.00 Build 0)  -->
<svg version="1.1" id="Layer_1" xmlns="http://www.w3.org/2000/svg" xmlns:xlink="http://www.w3.org/1999/xlink" x="0px" y="0px"
	 viewBox="0 0 698 197.7" style="enable-background:new 0 0 698 197.7;" xml:space="preserve">
<style type="text/css">
	.st0{fill:#FFFFFF;}
	.st1{fill:#FF2C3C;}
</style>
<g id="Layer_2_1_">
	<g id="Layer_3">
		<path class="st0" d="M3.1,4.1h14.2l32.8,43.1V4.1h15.2v70H52.2L18.3,29.6v44.5H3.1V4.1z"/>
		<polygon class="st0" points="101.5,17.8 101.5,17.8 134.9,17.8 134.9,4.1 82.1,4.1 82.1,17.8 		"/>
		<polygon class="st0" points="97.4,60.4 97.4,45.7 130.4,45.7 130.4,32 101.5,32 101.5,32 82.1,32 82.1,74.1 135.4,74.1 
			135.4,60.4 		"/>
		<path class="st0" d="M146,39.1c0-19.9,15.7-36.2,37.3-36.2s37.1,16.1,37.1,36.2c0,19.9-15.7,36.2-37.3,36.2S146,59.2,146,39.1z
			 M204.3,39.1c0-12-8.8-22-21.2-22s-21,9.8-21,22c0,12,8.8,22,21.2,22S204.4,51.3,204.3,39.1L204.3,39.1z"/>
		<path class="st0" d="M225.5,78.5h60.4v11.6h-60.4L225.5,78.5z"/>
		<path class="st1" d="M3.8,124.1h15.4v70H3.8V124.1z"/>
		<path class="st1" d="M36.7,124.1h14.2l32.8,43.1v-43.1H99v70H85.8l-33.9-44.5v44.5H36.7V124.1z"/>
		<polygon class="st1" points="110.7,124.1 110.7,138.3 132,138.3 132,138.3 147.4,138.3 147.4,138.3 168.8,138.3 168.8,124.1 		"/>
		<rect x="132" y="152" class="st1" width="15.4" height="42.1"/>
		<polygon class="st1" points="180.5,124.1 180.5,137.8 195.8,137.8 195.8,137.8 233.3,137.8 233.3,124.1 		"/>
		<polygon class="st1" points="195.8,180.4 195.8,165.7 228.8,165.7 228.8,152 197.9,152 197.9,152 180.5,152 180.5,194.1 
			233.8,194.1 233.8,180.4 		"/>
		<path class="st1" d="M290.9,169.1c8.9-3.3,15-10.4,15-21.7c0-6.8-2.1-12.3-6-16.2c-4.6-4.6-11.5-7.1-20.4-7.1h-32V138h30.7
			c7.5,0,12.1,3.4,12.1,10c0,6.1-4.3,10.1-11.8,10.1h-31v36h15.4v-22.4h11.9l15.2,22.4h18L290.9,169.1z"/>
		<path class="st1" d="M343.8,123.6H358l30,70.5h-16.1l-6.4-15.7h-29.6l-6.4,15.7h-15.7L343.8,123.6z M360,164.8l-9.3-22.7
			l-9.3,22.7H360z"/>
		<path class="st1" d="M391.2,159.1c0-19.9,15-36.2,36.5-36.2c13.2,0,20.6,5,27.1,11.4l-9.2,10.6c-5.4-4.9-10-7.8-18-7.8
			c-11.8,0-20.3,9.8-20.3,22c0,12,8.3,22,20.3,22c8,0,12.9-3.2,18.4-8.2l9.8,10.5c-7.2,7.7-15.2,11.9-28.7,11.9
			C406.5,195.3,391.2,179.4,391.2,159.1z"/>
		<rect x="484.4" y="152.5" class="st1" width="15.4" height="41.6"/>
		<polygon class="st1" points="463.1,124.1 463.1,138.3 482.3,138.3 482.3,138.3 504.3,138.3 504.3,138.3 521.1,138.3 521.1,124.1 
					"/>
		<path class="st1" d="M533.6,124.1H549v70h-15.4L533.6,124.1z"/>
		<path class="st1" d="M560.5,124.1h17l18.3,49.3l18.3-49.3h16.6l-28.3,70.5h-13.6L560.5,124.1z"/>
		<polygon class="st1" points="656.8,180.4 656.8,165.7 689.8,165.7 689.8,152 660.3,152 660.3,152 641.5,152 641.5,194.1 
			694.8,194.1 694.8,180.4 		"/>
		<polygon class="st1" points="641.5,124.1 641.5,137.8 659.6,137.8 659.6,137.8 694.3,137.8 694.3,124.1 		"/>
	</g>
</g>
</svg>
